# File created by Blade
# Date/Time:  Tue Apr 07 21:12:38 2015
# Frame Rate: 120.000 fps
#------------------------------------------------------
:FULLY-SPECIFIED
:DEGREES
1828
root 18.063227 20.906038 10.258393 668.229435 -67.908523 -639.608046
Spine 6.947797 -1.776716 -23.805842
Head -8.351980 2.110665 -9.798293
LeftShoulder 169.477162 146.617055 212.208862
LeftArm 98.579562 -67.422256 -112.906471
LeftForeArm -8.795975 -0.000000 26.336195
LeftHand 18.972287 0.000000 21.713004
LeftHandThumb1 -26.253704 0.000000 33.147579
RightShoulder 3.892139 17.700792 -39.223309
RightArm 21.619669 28.950927 45.301637
RightForeArm -0.423865 -0.000000 44.193685
RightHand 8.802865 -0.000000 -4.731986
RightHandThumb1 -24.326973 -0.000000 -32.862282
LeftUpLeg -86.911121 -12.911777 -27.026105
LeftLeg 95.643806 -0.000000 -0.000000
LeftFoot -36.381377 5.545304 -20.163290
LeftToeBase -9.714299 -0.000000 0.000000
RightUpLeg -29.246770 -0.050206 -11.110590
RightLeg 92.272083 -0.000000 -0.000000
RightFoot 62.188325 13.692202 20.779896
RightToeBase 36.711620 -0.000000 -0.000000
1829
root 17.964410 21.091547 10.240688 668.674996 -67.921723 -639.864086
Spine 6.712619 -2.027246 -23.888043
Head -8.452365 2.492697 -10.148127
LeftShoulder 169.451973 146.515967 211.956054
LeftArm 97.871884 -67.170862 -112.328044
LeftForeArm -8.755423 -0.000000 26.299593
LeftHand 19.116075 -0.000000 21.478864
LeftHandThumb1 -26.253704 0.000000 33.147579
RightShoulder 3.568026 17.242330 -39.304353
RightArm 20.860784 30.093036 44.892629
RightForeArm -0.919715 -0.000000 45.020695
RightHand 8.982062 -0.000000 -4.998180
RightHandThumb1 -24.326973 -0.000000 -32.862282
LeftUpLeg -86.364767 -12.740556 -26.912665
LeftLeg 94.966584 -0.000000 -0.000000
LeftFoot -36.251176 4.857719 -20.088391
LeftToeBase -9.626592 -0.000000 0.000000
RightUpLeg -30.573618 -0.828293 -11.135379
RightLeg 93.826798 -0.000000 -0.000000
RightFoot 62.403398 14.074841 20.754588
RightToeBase 36.194575 -0.000000 -0.000000
1830
root 17.865857 21.282571 10.223118 669.115597 -67.950643 -640.101647
Spine 6.424034 -2.300142 -23.954035
Head -8.475705 2.928077 -10.484385
LeftShoulder 169.348468 146.201869 211.566108
LeftArm 97.266101 -66.794018 -111.794525
LeftForeArm -8.684150 -0.000000 26.227852
LeftHand 18.946638 -0.000000 21.166272
LeftHandThumb1 -26.253704 0.000000 33.147579
RightShoulder 3.250649 16.767483 -39.304734
RightArm 20.265165 31.206049 44.656345
RightForeArm -1.383984 -0.000000 45.816563
RightHand 9.113842 -0.000000 -5.687703
RightHandThumb1 -24.326973 -0.000000 -32.862282
LeftUpLeg -85.815211 -12.560222 -26.797402
LeftLeg 94.251231 -0.000000 -0.000000
LeftFoot -36.148624 4.170434 -20.079074
LeftToeBase -9.409517 -0.000000 0.000000
RightUpLeg -31.952060 -1.638246 -11.133311
RightLeg 95.388633 -0.000000 -0.000000
RightFoot 62.528557 14.340744 20.640484
RightToeBase 36.171567 -0.000000 -0.000000
1831
root 17.767203 21.475468 10.204242 669.549387 -68.073030 -640.355368
Spine 6.099748 -2.523864 -23.926131
Head -8.411888 3.406485 -10.762087
LeftShoulder 169.299899 146.047569 211.193271
LeftArm 95.951335 -66.464020 -110.652337
LeftForeArm -8.594909 -0.000000 26.187142
LeftHand 18.780129 -0.000000 20.846763
LeftHandThumb1 -26.253704 0.000000 33.147579
RightShoulder 2.968759 16.341371 -39.291753
RightArm 19.561263 32.206319 44.471726
RightForeArm -1.852540 -0.000000 46.648072
RightHand 9.446246 -0.000000 -6.384518
RightHandThumb1 -24.326973 -0.000000 -32.862282
LeftUpLeg -85.274694 -12.319433 -26.580839
LeftLeg 93.535590 -0.000000 -0.000000
LeftFoot -36.026120 3.349310 -20.094973
LeftToeBase -9.175475 -0.000000 0.000000
RightUpLeg -33.363108 -2.418344 -11.050182
RightLeg 96.963909 -0.000000 -0.000000
RightFoot 62.535349 14.752965 20.397414
RightToeBase 35.544076 -0.000000 -0.000000
1832
root 17.666785 21.673399 10.182367 670.144865 -68.242951 -640.723631
Spine 5.676892 -2.808232 -23.818114
Head -8.288764 3.917331 -11.059313
LeftShoulder 169.228011 145.820790 210.705160
LeftArm 94.282499 -66.131769 -109.128112
LeftForeArm -8.518960 -0.000000 26.189926
LeftHand 18.532951 0.000000 20.374316
LeftHandThumb1 -26.253704 0.000000 33.147579
RightShoulder 2.727701 15.943389 -39.211887
RightArm 18.913126 33.146709 44.369264
RightForeArm -2.279039 -0.000000 47.503750
RightHand 9.136985 -0.000000 -6.436247
RightHandThumb1 -24.326973 -0.000000 -32.862282
LeftUpLeg -84.761092 -12.080746 -26.354522
LeftLeg 92.769097 -0.000000 -0.000000
LeftFoot -35.878491 2.819843 -19.858478
LeftToeBase -9.261676 -0.000000 0.000000
RightUpLeg -34.851143 -3.209593 -10.895489
RightLeg 98.456103 -0.000000 -0.000000
RightFoot 62.477263 14.872296 20.220578
RightToeBase 36.120090 -0.000000 -0.000000
